<svg id="Layer_1" data-name="Layer 1" xmlns="http://www.w3.org/2000/svg" viewBox="0 0 360 360"><defs><style>.cls-1{fill:#e8e2dc;}</style></defs><title>Artboard 1</title><path class="cls-1" d="M3,71V287H355V71Zm137.24,79.87c3.24-5.51,8.3-7.91,14.64-7.53a45.79,45.79,0,0,1,5.1.9c4.17-8.55,11-13,20.5-12.7,6.87.2,15.3,3.46,19.67,15,5.47-.66,10.65,0,14.73,4.37a16,16,0,0,1,4.24,9.66,16.22,16.22,0,0,1-3.94,12.66c-2.33,2.7-4.86,3.89-12.18,5.84v20.63c-14.8-6.43-29.31-6.63-44,.82V178c-2.58-.48-4.89-.75-7.12-1.33-4.91-1.28-9.09-3.74-11.74-8.23C136.71,162.59,136.87,156.63,140.24,150.87Zm76.31,72.2a18.29,18.29,0,0,1-10.76,4.68c-7.75.86-14-2.11-19.5-7.27-1.88-1.78-3.56-3.76-5.36-5.68-1.69,1.72-3.4,3.49-5.13,5.23-4.8,4.83-10.53,7.72-17.4,7.79s-12.7-2.21-16.41-8.41a8.85,8.85,0,0,1-1.37-5.21,37.58,37.58,0,0,0,2.8,3.12c2.41,2.13,5.22,2.66,8.05,1.11a66.39,66.39,0,0,0,7.4-4.86c3.56-2.6,7-5.4,11.1-7.14a17.12,17.12,0,0,1,4.85-1.32c2.59-.29,4.36,1,5.4,3.37.21.49.4,1,.72,1.77.3-.76.5-1.29.71-1.8a5.08,5.08,0,0,1,5.76-3.34,18.77,18.77,0,0,1,8.41,3.59c3.64,2.5,7.13,5.21,10.71,7.78a22.09,22.09,0,0,0,3.12,1.82,7.3,7.3,0,0,0,9.39-2.1c.56-.69,1.05-1.44,1.57-2.15A11.5,11.5,0,0,1,216.55,223.07Z"/></svg>