<svg id="Layer_1" data-name="Layer 1" xmlns="http://www.w3.org/2000/svg" viewBox="0 0 466.08 541.13"><defs><style>.cls-1{fill:none;stroke:#e8e2dc;stroke-miterlimit:10;}</style></defs><title>cheflogo</title><path class="cls-1" d="M803.26,150.7c-1.52-4-2.91-7.64-4.24-11.26a101.58,101.58,0,0,0-7.8-16,102,102,0,0,0-15.91-21.09c-3.52-3.53-7.18-6.93-11-10.15a92.74,92.74,0,0,0-9.85-7.36c-3.73-2.39-7.7-4.39-11.59-6.51a68,68,0,0,0-11.49-5c-4-1.31-7.93-2.75-12-3.87a102.06,102.06,0,0,0-10.28-2.19,100.56,100.56,0,0,0-12.54-1.64c-8.37-.33-16.75-.53-25.13.64-3.39.48-6.78,1-10.11,1.7-4.41,1-8.78,2.26-13.08,3.68-3.95,1.3-7.82,2.89-11.66,4.5a82,82,0,0,0-14.17,7.63c-3.8,2.54-7.64,5.06-11.18,7.94A102,102,0,0,0,595,108.08c-3.29,4.23-6.31,8.68-9.28,13.14a102.39,102.39,0,0,0-8,15.07c-.55,1.25-1.2,1.48-2.47,1.11-2.27-.67-4.53-1.39-6.82-2a112.18,112.18,0,0,0-11.1-2.57,118.77,118.77,0,0,0-13.59-1.13c-5.1-.14-10.23-.33-15.3.77-2.78.61-5.71.65-8.46,1.37-3.8,1-7.51,2.38-11.25,3.63a70.25,70.25,0,0,0-16.79,8.7,87,87,0,0,0-23.44,23.55A96.53,96.53,0,0,0,460,185.27,75.55,75.55,0,0,0,454.69,201c-.31,1.63-.8,3.23-1.07,4.87A85.44,85.44,0,0,0,452,216.94c-.26,7.57-.78,15.17.76,22.7.52,2.57.64,5.23,1.32,7.75,1,3.8,2.36,7.52,3.63,11.25a79.76,79.76,0,0,0,9.89,19.12,97.75,97.75,0,0,0,30,28.14,129.36,129.36,0,0,0,24.38,11.46,112.1,112.1,0,0,0,12.35,3.5c5.89,1.36,11.81,2.68,17.77,3.62,4.72.74,9.53.88,14.29,1.28a19.27,19.27,0,0,1,2.16.14,23.14,23.14,0,0,1,2.45.79V330q0,52,0,103.92c0,6.95.53,13.9.83,20.85a4.36,4.36,0,0,0,.3,1,5.62,5.62,0,0,0,1.41-.4c2.44-1.47,4.8-3.09,7.29-4.47a163.55,163.55,0,0,1,19.81-9.48c3.62-1.42,7.25-2.81,10.9-4.12,3.48-1.25,7-2.49,10.52-3.55,3-.88,6-1.52,9-2.24,5.35-1.27,10.69-2.57,16-3.77,2.25-.51,4.54-.85,6.82-1.15,3.48-.46,7-.81,10.45-1.23,4.35-.52,8.68-1.38,13-1.55,8.63-.35,17.28-.45,25.91-.42a185.63,185.63,0,0,1,23.45,1.14c3.94.53,7.92.82,11.89,1.22a3.94,3.94,0,0,1,.47.1l9.39,1.65c2.83.5,5.68.92,8.47,1.56,4.8,1.09,9.58,2.29,14.35,3.51,4,1,8,2,11.89,3.27,4.28,1.39,8.45,3.12,12.68,4.66a163.65,163.65,0,0,1,18,7.95c1.85.94,3.74,1.82,5.93,2.88.07-1.47.18-2.57.18-3.66q0-55.56,0-111.12c0-1.18.1-2.35.15-3.57,2.33-.38,4.45-.71,6.57-1.07,2.51-.44,5-.83,7.52-1.36,3.25-.68,6.54-1.29,9.72-2.25s6.53-2.33,9.78-3.54a89.2,89.2,0,0,0,45.59-39,95.52,95.52,0,0,0,8.37-19.62,101.79,101.79,0,0,0,3-14,75.94,75.94,0,0,0,.88-11.95A85.2,85.2,0,0,0,910,222.84c-.81-3.8-1.24-7.7-2.36-11.4a134.2,134.2,0,0,0-4.81-12.65,78.39,78.39,0,0,0-11.14-18.61,80.87,80.87,0,0,0-22-19.41,75.59,75.59,0,0,0-16.13-7.3,91.44,91.44,0,0,0-13.2-3.23,127.9,127.9,0,0,0-15.48-1.39,100,100,0,0,0-11.7.75c-1.58.13-3.15.47-4.72.65C806.72,150.44,805,150.55,803.26,150.7ZM694.43,508.42a2.65,2.65,0,0,1-1.53-2.31,7.07,7.07,0,0,0-.19-1.67c-1.63-4.7-3.22-9.38-6-13.63-4.9-7.64-11.89-11.85-20.74-13.05-5.13-.69-10.22.08-15.23,1.16a61.81,61.81,0,0,0-8.59,2.66c-4.42,1.65-8.89,3.25-13.12,5.32A213.2,213.2,0,0,0,600,504.15c-10.07,7.08-20,14.39-29.78,21.83-8.17,6.21-16.18,12.63-24.86,18.13a112.11,112.11,0,0,1-14.05,7.83,70.5,70.5,0,0,1-10.39,3.89c-3.87,1-7.73,2-11.73,1.59a68.91,68.91,0,0,1-8.36-1.73c-6-1.45-11.08-4.6-15.74-8.46a56.18,56.18,0,0,1-13.36-16.13c-.77-1.39-1.6-2.75-2.51-4.31-.28.5-.46.69-.48.9a15.43,15.43,0,0,0-.1,1.67,53.15,53.15,0,0,0,3,17.82,69.47,69.47,0,0,0,11.29,21,91.43,91.43,0,0,0,35.67,27.47A89.54,89.54,0,0,0,537,601.82c4.19.86,8.36,1.89,12.57,2.57,3.31.54,6.67.7,10,1,7.46.63,14.84-.52,22.25-.94l.24,0c4.19-.88,8.39-1.71,12.57-2.65a88.62,88.62,0,0,0,9-2.25c4.66-1.58,9.29-3.27,13.8-5.23a147.73,147.73,0,0,0,20.5-10.78c7.08-4.5,14.07-9.12,20.13-15q10.56-10.17,20.89-20.55c5-5.1,10.1-10.23,14.1-16.25a3,3,0,0,1,1-.75c3,3.65,5.59,7.33,8.62,10.63,7.69,8.35,15.52,16.57,23.36,24.78a56.11,56.11,0,0,0,6.79,6.2c4.79,3.58,9.72,7,14.69,10.35,13,8.77,27,15.49,42.45,18.85,4.26.92,8.51,2,12.81,2.59a128.09,128.09,0,0,0,13.13,1,89,89,0,0,0,13.15-.57c4.75-.53,9.45-1.13,14.15-2a110.2,110.2,0,0,0,14.63-4,96.65,96.65,0,0,0,19.95-9.31c10.94-6.71,20.41-15.08,27.56-25.86a59.29,59.29,0,0,0,7.56-15.17c.77-2.5,1.56-5,2.19-7.54a50.18,50.18,0,0,0,1.65-13.75,4.91,4.91,0,0,0-.4-1.18c-.68,1.07-1.23,1.82-1.67,2.63A61.92,61.92,0,0,1,898,548.33a46.34,46.34,0,0,1-22.4,9,25,25,0,0,1-7.34-.52,49.7,49.7,0,0,1-11.32-3.41,117.2,117.2,0,0,1-24-14.23c-7.29-5.42-14.39-11.11-21.67-16.55-8.52-6.37-17.09-12.7-25.77-18.87a198.87,198.87,0,0,0-29.71-17.64,88.62,88.62,0,0,0-22.55-7.68,37,37,0,0,0-15.19,0,25.3,25.3,0,0,0-12.66,6.93c-5,5.06-7.8,11.24-9.63,18C695.29,505,694.88,506.68,694.43,508.42Z" transform="translate(-451.18 -64.92)"/><path class="cls-1" d="M803.26,150.7c1.72-.15,3.46-.26,5.2-.45,1.57-.18,3.14-.52,4.72-.65a100,100,0,0,1,11.7-.75,127.9,127.9,0,0,1,15.48,1.39,91.44,91.44,0,0,1,13.2,3.23,75.59,75.59,0,0,1,16.13,7.3,80.87,80.87,0,0,1,22,19.41,78.39,78.39,0,0,1,11.14,18.61,134.2,134.2,0,0,1,4.81,12.65c1.12,3.7,1.55,7.6,2.36,11.4a85.2,85.2,0,0,1,1.51,17.37,75.94,75.94,0,0,1-.88,11.95,101.79,101.79,0,0,1-3,14,95.52,95.52,0,0,1-8.37,19.62,89.2,89.2,0,0,1-45.59,39c-3.25,1.21-6.46,2.55-9.78,3.54s-6.47,1.57-9.72,2.25c-2.49.53-5,.92-7.52,1.36-2.12.36-4.24.69-6.57,1.07-.05,1.22-.15,2.39-.15,3.57q0,55.56,0,111.12c0,1.09-.11,2.19-.18,3.66-2.19-1.06-4.08-1.94-5.93-2.88a163.65,163.65,0,0,0-18-7.95c-4.23-1.54-8.4-3.27-12.68-4.66-3.9-1.27-7.91-2.24-11.89-3.27-4.77-1.22-9.55-2.42-14.35-3.51-2.79-.64-5.64-1.06-8.47-1.56l-9.39-1.65a3.94,3.94,0,0,0-.47-.1c-4-.4-8-.69-11.89-1.22a185.63,185.63,0,0,0-23.45-1.14c-8.63,0-17.28.07-25.91.42-4.35.17-8.68,1-13,1.55-3.48.42-7,.77-10.45,1.23-2.28.3-4.57.64-6.82,1.15-5.36,1.2-10.7,2.5-16,3.77-3,.72-6,1.36-9,2.24-3.55,1.06-7,2.3-10.52,3.55-3.65,1.31-7.28,2.7-10.9,4.12a163.55,163.55,0,0,0-19.81,9.48c-2.49,1.38-4.85,3-7.29,4.47a5.62,5.62,0,0,1-1.41.4,4.36,4.36,0,0,1-.3-1c-.3-7-.81-13.9-.83-20.85q-.12-52,0-103.92v-3.33a23.14,23.14,0,0,0-2.45-.79,19.27,19.27,0,0,0-2.16-.14c-4.76-.4-9.57-.54-14.29-1.28-6-.94-11.88-2.26-17.77-3.62a112.1,112.1,0,0,1-12.35-3.5,129.36,129.36,0,0,1-24.38-11.46,97.75,97.75,0,0,1-30-28.14,79.76,79.76,0,0,1-9.89-19.12c-1.27-3.73-2.6-7.45-3.63-11.25-.68-2.52-.8-5.18-1.32-7.75-1.54-7.53-1-15.13-.76-22.7a85.44,85.44,0,0,1,1.64-11.07c.27-1.64.76-3.24,1.07-4.87A75.55,75.55,0,0,1,460,185.27a96.53,96.53,0,0,1,8.59-15.51A87,87,0,0,1,492,146.21a70.25,70.25,0,0,1,16.79-8.7c3.74-1.25,7.45-2.63,11.25-3.63,2.75-.72,5.68-.76,8.46-1.37,5.07-1.1,10.2-.91,15.3-.77a118.77,118.77,0,0,1,13.59,1.13,112.18,112.18,0,0,1,11.1,2.57c2.29.57,4.55,1.29,6.82,2,1.27.37,1.92.14,2.47-1.11a102.39,102.39,0,0,1,8-15.07c3-4.46,6-8.91,9.28-13.14A102,102,0,0,1,611.3,91.77c3.54-2.88,7.38-5.4,11.18-7.94a82,82,0,0,1,14.17-7.63c3.84-1.61,7.71-3.2,11.66-4.5C652.61,70.28,657,69,661.39,68c3.33-.74,6.72-1.22,10.11-1.7,8.38-1.17,16.76-1,25.13-.64a100.56,100.56,0,0,1,12.54,1.64,102.06,102.06,0,0,1,10.28,2.19c4,1.12,8,2.56,12,3.87a68,68,0,0,1,11.49,5c3.89,2.12,7.86,4.12,11.59,6.51a92.74,92.74,0,0,1,9.85,7.36c3.79,3.22,7.45,6.62,11,10.15a102,102,0,0,1,15.91,21.09,101.58,101.58,0,0,1,7.8,16C800.35,143.06,801.74,146.66,803.26,150.7Z" transform="translate(-451.18 -64.92)"/><path class="cls-1" d="M694.43,508.42c.45-1.74.86-3.4,1.31-5.05,1.83-6.73,4.66-12.91,9.63-18A25.3,25.3,0,0,1,718,478.47a37,37,0,0,1,15.19,0,88.62,88.62,0,0,1,22.55,7.68,198.87,198.87,0,0,1,29.71,17.64c8.68,6.17,17.25,12.5,25.77,18.87,7.28,5.44,14.38,11.13,21.67,16.55a117.2,117.2,0,0,0,24,14.23,49.7,49.7,0,0,0,11.32,3.41,25,25,0,0,0,7.34.52,46.34,46.34,0,0,0,22.4-9,61.92,61.92,0,0,0,16.71-19.67c.44-.81,1-1.56,1.67-2.63a4.91,4.91,0,0,1,.4,1.18A50.18,50.18,0,0,1,915.09,541c-.63,2.54-1.42,5-2.19,7.54a59.29,59.29,0,0,1-7.56,15.17c-7.15,10.78-16.62,19.15-27.56,25.86a96.65,96.65,0,0,1-19.95,9.31,110.2,110.2,0,0,1-14.63,4c-4.7.89-9.4,1.49-14.15,2a89,89,0,0,1-13.15.57,128.09,128.09,0,0,1-13.13-1c-4.3-.61-8.55-1.67-12.81-2.59-15.45-3.36-29.41-10.08-42.45-18.85-5-3.34-9.9-6.77-14.69-10.35a56.11,56.11,0,0,1-6.79-6.2c-7.84-8.21-15.67-16.43-23.36-24.78-3-3.3-5.67-7-8.62-10.63a3,3,0,0,0-1,.75c-4,6-9,11.15-14.1,16.25q-10.31,10.41-20.89,20.55c-6.06,5.84-13,10.46-20.13,15a147.73,147.73,0,0,1-20.5,10.78c-4.51,2-9.14,3.65-13.8,5.23a88.62,88.62,0,0,1-9,2.25c-4.18.94-8.38,1.77-12.57,2.65l-.24,0c-7.41.42-14.79,1.57-22.25.94-3.34-.28-6.7-.44-10-1-4.21-.68-8.38-1.71-12.57-2.57a89.54,89.54,0,0,1-18.44-6.21,91.43,91.43,0,0,1-35.67-27.47,69.47,69.47,0,0,1-11.29-21,53.15,53.15,0,0,1-3-17.82,15.43,15.43,0,0,1,.1-1.67c0-.21.2-.4.48-.9.91,1.56,1.74,2.92,2.51,4.31a56.18,56.18,0,0,0,13.36,16.13c4.66,3.86,9.77,7,15.74,8.46a68.91,68.91,0,0,0,8.36,1.73c4,.45,7.86-.56,11.73-1.59a70.5,70.5,0,0,0,10.39-3.89,112.11,112.11,0,0,0,14.05-7.83C554,538.61,562,532.19,570.18,526c9.8-7.44,19.71-14.75,29.78-21.83a213.2,213.2,0,0,1,29.12-17.25c4.23-2.07,8.7-3.67,13.12-5.32a61.81,61.81,0,0,1,8.59-2.66c5-1.08,10.1-1.85,15.23-1.16,8.85,1.2,15.84,5.41,20.74,13.05,2.73,4.25,4.32,8.93,6,13.63a7.07,7.07,0,0,1,.19,1.67A2.65,2.65,0,0,0,694.43,508.42Z" transform="translate(-451.18 -64.92)"/></svg>