<svg xmlns="http://www.w3.org/2000/svg" viewBox="0 0 234.89 342.73">
   <defs />
   <g  className='penLogo' id="Layer_2" data-name="Layer 2">
       <g id="Layer_1-2" data-name="Layer 1">
           <path fill='#DAB785'  className="cls-1" d="M122,341.92l.51.09c.36-.52.73-1,1.07-1.57,3.57-5.73,7.11-11.48,10.71-17.2q10.5-16.71,21-33.39,16.44-26,32.91-52a2.26,2.26,0,0,0-.12-3.12,123.6,123.6,0,0,1-18.15-30.27,136.19,136.19,0,0,1-10.81-39.63,106.2,106.2,0,0,1,.81-31.24c.85-4.61,2.12-9.15,3.3-13.69.3-1.13.13-1.67-1-1.86a15.85,15.85,0,0,1-2.07-.44c-5.29-1.55-10.59-3.07-15.86-4.7a33.37,33.37,0,0,1-4.12-1.92l.16-.45a3.1,3.1,0,0,1,1-.12c2,.48,4,1.09,6,1.51a100.4,100.4,0,0,0,29.59,2.18c11.28-1,22-3.92,31.67-9.84,10.31-6.27,18-14.83,22.36-26.17,4-10.27,4.29-20.82,2.37-31.57a39.46,39.46,0,0,0-16.76-26.33C205.9,12.82,194,10.61,181.29,12a55,55,0,0,0-23,8.26c-2.66,1.63-2.85,1.52-4.44-.95A38.22,38.22,0,0,0,137,5C123.71-.95,110.09-.85,96.7,4.44c-18.53,7.31-30,20.86-34,40.49-.42,2-.89,2.25-2.76,1.51-10.18-4.07-20.57-5-31-1.33-14.54,5.18-24,15.44-27.36,30.46-4.06,18,4,34.8,20.51,43.22,13.83,7,28.59,7.27,43.55,4.56,1.23-.23,1.49-1,1.38-2.07-.28-2.74-.52-5.5-1-8.21-.61-3.57-1.43-7.1-2.24-11,.48.43.76.58.87.81,1.24,2.59,2.59,5.14,3.65,7.81a112.91,112.91,0,0,1,8,43.75c0,2.26.13,2.36,2.32,1.49a86.08,86.08,0,0,1,25.16-5.74,95.39,95.39,0,0,1,37.41,4.17c1.13.37,2.2.88,3.3,1.33l-.14.5c-1.06-.19-2.13-.34-3.18-.58-1.49-.33-3-.8-4.45-1.06a107.13,107.13,0,0,0-24.91-1.64c-12,.77-23.48,3.26-34.22,8.82a3.56,3.56,0,0,0-2,2.85c-1.1,6.3-2,12.63-3.43,18.87-2.41,11-6.85,21.23-12,31.15a118.63,118.63,0,0,1-13.15,20.2c-.73.88-1.14,1.67-.41,2.83,5.79,9.12,11.53,18.28,17.3,27.42q14.34,22.74,28.69,45.45,9.3,14.76,18.6,29.53c.4.64.92,1.22,1.38,1.82A3.23,3.23,0,0,0,113,340q0-39.5.07-79a2.68,2.68,0,0,0-1.85-2.8c-6.52-3-9.93-8.18-10-15.27-.16-10.7,0-21.39,0-32.09,0-2.46.87-3.86,2.4-3.9s2.42,1.27,2.43,3.8q0,10.32,0,20.63c0,.64-.09,1.46.25,1.88.52.66,1.45,1.54,2.06,1.44.76-.14,1.42-1.12,2-1.84.21-.25,0-.8,0-1.21,0-7.23,0-14.45,0-21.68,0-1.79,1.2-3.1,2.54-3s2.13,1.18,2.13,3.08q0,10.85.08,21.68c0,1.81,1.1,3.13,2.46,3.06s2.06-1.2,2.06-3.12q0-9.87,0-19.75a23.22,23.22,0,0,1,.06-2.64A2.3,2.3,0,0,1,122,207c1.39-.06,2.1.93,2.28,2.23a19.15,19.15,0,0,1,.11,2.63q0,9.52,0,19.05c0,.53,0,1.06,0,1.58a2.28,2.28,0,0,0,2.22,2.32c1.38.1,1.91-1,2.18-2.11a6.51,6.51,0,0,0,.07-1.4q0-8,0-16c0-1.65,0-3.29,0-4.94,0-1.92,1.08-3.34,2.44-3.35s2.24,1.23,2.32,3.2c0,.47,0,.94,0,1.41q0,15.43,0,30.86c0,7.37-3.24,12.73-10,15.8a2.87,2.87,0,0,0-1.91,3.08q.08,39.5,0,79C121.84,340.82,121.91,341.37,122,341.92Z"
           />
<path fill='none' className="cls-1" d="M122,341.92c0-.55-.11-1.1-.11-1.65q0-39.5,0-79a2.87,2.87,0,0,1,1.91-3.08c6.73-3.07,10-8.43,10-15.8q0-15.44,0-30.86c0-.47,0-.94,0-1.41-.08-2-1-3.21-2.32-3.2s-2.41,1.43-2.44,3.35c0,1.65,0,3.29,0,4.94q0,8,0,16a6.51,6.51,0,0,1-.07,1.4c-.27,1.16-.8,2.21-2.18,2.11a2.28,2.28,0,0,1-2.22-2.32c0-.52,0-1,0-1.58q0-9.52,0-19.05a19.15,19.15,0,0,0-.11-2.63c-.18-1.3-.89-2.29-2.28-2.23a2.3,2.3,0,0,0-2.25,2.3,23.22,23.22,0,0,0-.06,2.64q0,9.87,0,19.75c0,1.92-.75,3.06-2.06,3.12s-2.45-1.25-2.46-3.06q-.06-10.83-.08-21.68c0-1.9-.72-3-2.13-3.08s-2.53,1.22-2.54,3c0,7.23,0,14.45,0,21.68,0,.41.17,1,0,1.21-.58.72-1.24,1.7-2,1.84-.61.1-1.54-.78-2.06-1.44-.34-.42-.24-1.24-.25-1.88q0-10.31,0-20.63c0-2.53-.85-3.84-2.43-3.8s-2.4,1.44-2.4,3.9c0,10.7-.13,21.39,0,32.09.1,7.09,3.51,12.3,10,15.27a2.68,2.68,0,0,1,1.85,2.8q-.07,39.5-.07,79a3.23,3.23,0,0,1-.51,1.85c-.46-.6-1-1.18-1.38-1.82q-9.31-14.76-18.6-29.53Q78.17,287.77,63.82,265c-5.77-9.14-11.51-18.3-17.3-27.42-.73-1.16-.32-2,.41-2.83a118.63,118.63,0,0,0,13.15-20.2c5.17-9.92,9.61-20.17,12-31.15,1.38-6.24,2.33-12.57,3.43-18.87a3.56,3.56,0,0,1,2-2.85c10.74-5.56,22.24-8.05,34.22-8.82a107.13,107.13,0,0,1,24.91,1.64c1.5.26,3,.73,4.45,1.06,1,.24,2.12.39,3.18.58l.14-.5c-1.1-.45-2.17-1-3.3-1.33a95.39,95.39,0,0,0-37.41-4.17,86.08,86.08,0,0,0-25.16,5.74c-2.19.87-2.36.77-2.32-1.49a112.91,112.91,0,0,0-8-43.75c-1.06-2.67-2.41-5.22-3.65-7.81-.11-.23-.39-.38-.87-.81.81,3.91,1.63,7.44,2.24,11,.47,2.71.71,5.47,1,8.21.11,1-.15,1.84-1.38,2.07-15,2.71-29.72,2.49-43.55-4.56C5.53,110.37-2.52,93.6,1.54,75.57c3.39-15,12.82-25.28,27.36-30.46,10.43-3.71,20.82-2.74,31,1.33,1.87.74,2.34.5,2.76-1.51,4.06-19.63,15.51-33.18,34-40.49C110.09-.85,123.71-.95,137,5a38.22,38.22,0,0,1,16.83,14.3c1.59,2.47,1.78,2.58,4.44.95a55,55,0,0,1,23-8.26c12.75-1.36,24.61.85,35.2,8.26a39.46,39.46,0,0,1,16.76,26.33c1.92,10.75,1.59,21.3-2.37,31.57-4.37,11.34-12,19.9-22.36,26.17-9.72,5.92-20.39,8.82-31.67,9.84A100.4,100.4,0,0,1,147.26,112c-2-.42-4-1-6-1.51a3.1,3.1,0,0,0-1,.12l-.16.45a33.37,33.37,0,0,0,4.12,1.92c5.27,1.63,10.57,3.15,15.86,4.7a15.85,15.85,0,0,0,2.07.44c1.16.19,1.33.73,1,1.86-1.18,4.54-2.45,9.08-3.3,13.69a106.2,106.2,0,0,0-.81,31.24,136.19,136.19,0,0,0,10.81,39.63,123.6,123.6,0,0,0,18.15,30.27,2.26,2.26,0,0,1,.12,3.12q-16.5,26-32.91,52-10.54,16.68-21,33.39c-3.6,5.72-7.14,11.47-10.71,17.2-.34.54-.71,1.05-1.07,1.57Z"
           />
       </g>
   </g>
</svg>