<?xml version="1.0" encoding="utf-8"?>
<!-- Generator: Adobe Illustrator 22.1.0, SVG Export Plug-In . SVG Version: 6.00 Build 0)  -->
<svg version="1.1" id="Layer_1" xmlns="http://www.w3.org/2000/svg" xmlns:xlink="http://www.w3.org/1999/xlink" x="0px" y="0px"
     viewBox="0 0 1920 1080" style="enable-background:new 0 0 1920 1080;" xml:space="preserve">
<style type="text/css">
    .st0{fill:#F1E4D2;}
</style>
<g>
    <g>
        <path class="st0" d="M0,0v1080h1920V0H0z M1178.2,360.8c-8.4,21.8-23.2,38.3-43,50.4c-18.7,11.4-39.2,17-60.9,18.9
            c-19.2,1.7-38.1-0.3-56.9-4.2c-3.9-0.8-7.7-2-11.5-2.9c-0.6-0.1-1.3,0.1-1.9,0.2c-0.1,0.3-0.2,0.6-0.3,0.9
            c2.6,1.2,5.2,2.8,7.9,3.7c10.1,3.2,20.3,6.1,30.5,9.1c1.3,0.4,2.6,0.6,4,0.8c2.2,0.4,2.6,1.4,2,3.6c-2.3,8.7-4.7,17.5-6.4,26.3
            c-3.7,19.9-3.8,40-1.6,60.1c2.9,26.5,10.2,51.9,20.8,76.3c9.1,20.9,20.2,40.7,34.9,58.2c1.7,2,1.7,3.7,0.2,6
            c-21.2,33.3-42.2,66.6-63.3,100c-13.5,21.4-27,42.8-40.5,64.2c-6.9,11-13.7,22.1-20.6,33.1c-0.6,1-1.4,2-2,3
            c-0.3-0.1-0.7-0.1-1-0.2c-0.1-1.1-0.2-2.1-0.2-3.2c0-50.7,0-101.3-0.1-152c0-3,0.8-4.6,3.7-5.9c12.9-5.9,19.2-16.2,19.2-30.4
            c0-19.8,0-39.6,0-59.4c0-0.9,0-1.8,0-2.7c-0.2-3.8-1.9-6.2-4.5-6.2c-2.6,0-4.6,2.8-4.7,6.5c-0.1,3.2,0,6.3,0,9.5
            c0,10.3,0,20.6,0,30.9c0,0.9,0.1,1.8-0.1,2.7c-0.5,2.2-1.5,4.3-4.2,4.1c-2.5-0.2-4.1-1.8-4.3-4.4c-0.1-1,0-2,0-3.1
            c0-12.2,0-24.4,0-36.6c0-1.7,0-3.4-0.2-5.1c-0.3-2.5-1.7-4.4-4.4-4.3c-2.6,0.1-4.1,1.9-4.3,4.4c-0.2,1.7-0.1,3.4-0.1,5.1
            c0,12.7,0,25.3,0,38c0,3.7-1.4,5.9-4,6c-2.6,0.1-4.7-2.4-4.7-5.9c-0.1-13.9-0.1-27.8-0.2-41.7c0-3.7-1.4-5.8-4.1-5.9
            c-2.6-0.2-4.9,2.4-4.9,5.8c-0.1,13.9-0.1,27.8-0.1,41.7c0,0.8,0.3,1.8-0.1,2.3c-1.1,1.4-2.4,3.3-3.9,3.5c-1.2,0.2-3-1.5-4-2.8
            c-0.6-0.8-0.5-2.4-0.5-3.6c0-13.2,0-26.5-0.1-39.7c0-4.9-1.6-7.4-4.7-7.3c-2.9,0.1-4.6,2.8-4.6,7.5c0,20.6-0.2,41.2,0.1,61.7
            c0.2,13.6,6.8,23.7,19.3,29.4c2.5,1.1,3.6,2.6,3.6,5.4c-0.1,50.7-0.1,101.3-0.1,152c0,1.1-0.1,2.2-1,3.6c-0.9-1.2-1.9-2.3-2.7-3.5
            c-11.9-18.9-23.8-37.9-35.8-56.8c-18.4-29.2-36.8-58.3-55.2-87.4c-11.1-17.6-22.1-35.2-33.3-52.8c-1.4-2.2-0.6-3.8,0.8-5.5
            c9.8-12,18.1-25.1,25.3-38.9c10-19.1,18.5-38.8,23.1-59.9c2.6-12,4.5-24.2,6.6-36.3c0.4-2.5,1.4-4.2,3.9-5.5
            c20.7-10.7,42.8-15.5,65.8-17c16.1-1,32.1,0.4,47.9,3.1c2.9,0.5,5.7,1.4,8.6,2c2,0.4,4.1,0.7,6.1,1.1c0.1-0.3,0.2-0.6,0.3-1
            c-2.1-0.9-4.2-1.9-6.3-2.6c-23.4-7.6-47.5-10-72-8c-16.7,1.3-32.9,4.8-48.4,11c-4.2,1.7-4.5,1.5-4.5-2.9
            c0.5-29.1-4.7-57.1-15.3-84.2c-2-5.1-4.6-10-7-15c-0.2-0.4-0.8-0.7-1.7-1.6c1.6,7.5,3.1,14.3,4.3,21.2c0.9,5.2,1.3,10.5,1.9,15.8
            c0.2,2-0.3,3.5-2.7,4c-28.8,5.2-57.2,4.8-83.8-8.8c-31.8-16.2-47.3-48.5-39.5-83.2c6.5-28.9,24.7-48.7,52.7-58.6
            c20.1-7.1,40.1-5.3,59.6,2.5c3.6,1.4,4.5,1,5.3-2.9c7.8-37.8,29.9-63.8,65.5-77.9c25.8-10.2,52-10.4,77.6,1
            c13.4,6,24.4,15.1,32.4,27.5c3.1,4.7,3.4,5,8.5,1.8c13.6-8.3,28.1-14.2,44.3-15.9c24.5-2.6,47.3,1.6,67.7,15.9
            c17.7,12.4,28.4,29.3,32.2,50.6C1186.5,320.8,1185.9,341.1,1178.2,360.8z"/>
    </g>
</g>
</svg>